<?xml version="1.0" encoding="utf-8"?>
<!-- Generator: Adobe Illustrator 15.0.0, SVG Export Plug-In . SVG Version: 6.00 Build 0)  -->
<!DOCTYPE svg PUBLIC "-//W3C//DTD SVG 1.1//EN" "http://www.w3.org/Graphics/SVG/1.1/DTD/svg11.dtd">
<svg version="1.1" id="Layer_1" xmlns="http://www.w3.org/2000/svg" xmlns:xlink="http://www.w3.org/1999/xlink" x="0px" y="0px"
	 width="1024px" height="768px" viewBox="0 0 1024 768" enable-background="new 0 0 1024 768" xml:space="preserve">
<g>
	<path d="M379.963,193.569c-17.597,3.406-32.071,5.393-53.074,7.663c-2.271-6.812-4.541-11.353-7.947-16.746
		c52.507-3.122,98.485-14.475,120.339-29.801l13.907,14.191c-2.554,1.135-2.554,1.135-12.488,6.244
		c-11.069,5.109-27.247,10.501-43.424,14.475v46.831h35.761c11.92,0,18.732-0.285,25.827-1.419v19.016
		c-6.527-0.851-14.19-1.419-25.26-1.419h-36.329v43.992h25.828c9.934,0,15.894-0.284,21.287-1.135
		c-0.568,5.96-0.852,13.907-0.852,24.975v57.899c0,9.934,0.567,17.597,1.419,24.409h-19.016v-13.623h-74.361v18.164h-19.299
		c1.135-9.082,1.703-18.448,1.703-28.667v-58.467c0-11.068-0.284-17.312-1.135-24.691c5.96,0.851,12.204,1.135,22.138,1.135h24.976
		v-43.992h-34.058c-11.353,0-20.435,0.568-28.098,1.703v-19.583c7.663,1.135,17.313,1.703,28.098,1.703h34.058V193.569z
		 M351.582,373.226h74.361v-61.02h-74.361V373.226z M492.356,154.402c-1.136,8.23-1.704,17.313-1.704,30.084v187.888
		c0,5.676,1.136,7.38,5.961,8.515c3.974,0.852,11.636,1.419,21.285,1.419c9.936,0,18.448-0.852,22.989-2.554
		c8.231-2.839,11.638-18.165,13.34-60.454c7.664,4.257,10.786,5.676,18.448,8.231c-2.554,34.342-6.243,51.087-12.203,60.453
		c-5.961,9.366-15.895,11.921-46.263,11.921c-34.626,0-41.722-3.406-41.722-20.436V184.487c0-14.19-0.284-22.706-1.418-30.084
		H492.356z"/>
</g>
</svg>
